<svg id="Layer_1" enable-background="new 0 0 512 512" height="512" viewBox="0 0 512 512" width="512" xmlns="http://www.w3.org/2000/svg"><g><g><path d="m72.262 242.832c-10.678-10.678-10.678-28.001 0-38.679l7.675-7.675 38.647 38.647-7.707 7.707c-10.666 10.666-27.949 10.666-38.615 0z" fill="#ffe20d"/></g><path d="m269.2 439.77c-10.678-10.678-10.678-28.001 0-38.679l6.037-6.037 38.647 38.647-6.069 6.069c-10.666 10.666-27.949 10.666-38.615 0z" fill="#ffe20d"/><g><g><g><path d="m361.694 270.99 90.122-90.122c46.705-46.705 68.11-113.014 57.528-178.212-65.198-10.581-131.507 10.824-178.212 57.529l-90.122 90.122-86.499-10.997c-29.101-3.7-58.276 6.276-79.019 27.02l-16.767 16.767 74.748 74.748-5.616 52.672 73.627 73.627 52.672-5.616 74.748 74.748 16.767-16.767c20.743-20.743 30.719-49.918 27.02-79.019z" fill="#edf7ff"/><g fill="#e1eefa"><path d="m213.561 378.528-15.988 1.705 3.911 3.911 15.988-1.705z"/><path d="m509.344 2.657c-17.777-2.885-35.635-3.375-53.158-1.639 4.189.417 8.378.96 12.563 1.639 10.582 65.197-10.823 131.507-57.528 178.212l-90.122 90.122 10.997 86.499c3.489 27.444-5.19 54.951-23.587 75.392l20.394 20.394 16.767-16.767c20.743-20.743 30.719-49.918 27.02-79.019l-10.997-86.499 90.122-90.122c46.705-46.705 68.11-113.015 57.529-178.212z"/></g></g><g fill="#bfd6e6"><path d="m235.628 144.924-51.162 51.163c-2.973 2.973-2.973 7.792 0 10.765 1.486 1.486 3.434 2.229 5.382 2.229s3.896-.743 5.382-2.229l51.162-51.163c2.973-2.973 2.973-7.792 0-10.765-2.972-2.972-7.792-2.972-10.764 0z"/><path d="m367.339 265.87c-2.973-2.971-7.792-2.971-10.765 0l-51.162 51.163c-2.972 2.973-2.972 7.792 0 10.765 1.487 1.486 3.435 2.229 5.383 2.229 1.947 0 3.896-.743 5.383-2.229l51.162-51.163c2.971-2.973 2.971-7.792-.001-10.765z"/></g><path d="m188.714 371.374-48.087-48.087 163.499-163.499c13.271-13.271 34.776-13.271 48.047 0 13.287 13.287 13.287 34.84 0 48.127z" fill="#91edff"/><g><path d="m412.956 99.044c30.599 30.599 33.412 78.455 8.451 112.233l30.409-30.409c46.705-46.705 68.11-113.014 57.528-178.212-65.198-10.581-131.507 10.824-178.212 57.529l-30.409 30.409c33.778-24.962 81.634-22.148 112.233 8.45z" fill="#ffe20d"/></g><g><path d="m509.344 2.657c-17.777-2.885-35.635-3.375-53.158-1.639 4.189.417 8.378.96 12.563 1.639 8.336 51.362-3.192 103.406-31.289 146.019 2.869 21.67-2.47 44.219-16.054 62.601l30.409-30.409c46.705-46.704 68.11-113.014 57.529-178.211z" fill="#f7d900"/></g></g><g fill="#bfd6e6"><path d="m7.612 291.044c1.948 0 3.896-.743 5.382-2.229l18.931-18.931c2.973-2.973 2.973-7.792 0-10.765-2.972-2.971-7.792-2.971-10.764 0l-18.931 18.931c-2.973 2.973-2.973 7.792 0 10.765 1.486 1.485 3.434 2.229 5.382 2.229z"/><path d="m8.591 330.491c1.486 1.486 3.434 2.229 5.382 2.229s3.896-.743 5.382-2.229l45.989-45.989c2.973-2.973 2.973-7.792 0-10.765-2.972-2.971-7.792-2.971-10.764 0l-45.989 45.989c-2.972 2.973-2.972 7.791 0 10.765z"/><path d="m251.648 481.888c-2.935-3.011-7.754-3.072-10.763-.137l-17.63 17.187c-3.01 2.935-3.071 7.753-.137 10.763 1.492 1.53 3.47 2.298 5.45 2.298 1.916 0 3.833-.719 5.313-2.162l17.63-17.187c3.01-2.933 3.071-7.752.137-10.762z"/><path d="m238.263 446.655c-2.972-2.971-7.792-2.971-10.764 0l-45.989 45.989c-2.973 2.973-2.973 7.792 0 10.765 1.486 1.486 3.434 2.229 5.382 2.229s3.896-.743 5.382-2.229l45.989-45.989c2.973-2.973 2.973-7.792 0-10.765z"/><path d="m118.995 393.472c-2.966-2.979-7.786-2.988-10.764-.023l-105.99 105.546c-2.979 2.966-2.989 7.786-.023 10.764 1.487 1.494 3.44 2.241 5.394 2.241 1.943 0 3.886-.739 5.371-2.218l105.99-105.546c2.978-2.966 2.988-7.786.022-10.764z"/><path d="m22.798 434.399c1.486 1.486 3.434 2.229 5.382 2.229 1.947 0 3.896-.743 5.382-2.229l81.933-81.933c2.973-2.973 2.973-7.792 0-10.765-2.972-2.97-7.791-2.972-10.764 0l-81.933 81.933c-2.973 2.974-2.973 7.792 0 10.765z"/><path d="m159.534 396.505-81.933 81.933c-2.973 2.973-2.973 7.792 0 10.765 1.486 1.486 3.434 2.229 5.382 2.229 1.947 0 3.896-.743 5.382-2.229l81.933-81.933c2.973-2.973 2.973-7.792 0-10.765-2.972-2.971-7.791-2.973-10.764 0z"/></g></g></g></svg>